<svg xmlns="http://www.w3.org/2000/svg" version="1.1" xmlns:xlink="http://www.w3.org/1999/xlink" xmlns:svgjs="http://svgjs.dev/svgjs" viewBox="0 0 1422 800"><defs><linearGradient x1="50%" y1="0%" x2="50%" y2="100%" id="ssscribble-grad"><stop stop-color="hsl(162, 100%, 58%)" stop-opacity="1" offset="0%"></stop><stop stop-color="hsl(270, 73%, 53%)" stop-opacity="1" offset="100%"></stop></linearGradient></defs><g fill="none" stroke-width="1.5" stroke="url(#ssscribble-grad)" stroke-linecap="round"><path d="M1338.26 540.09C1190.39 572.95 1040.49 588.41 955.53 585.1 967.47 579.18 1060.43 552.17 1185.06 508.31 1296.53 472.53 1344.98 441.72 1319.41 439.29 1230.7 484.51 1106.09 583.02 979.51 727.8 867.59 875.47 791.2 987.55 750.13 1011.92 740.1 938.44 749.6 794.98 764.48 659.5 788.33 624.94 803.01 721.66 803.17 907.46 803.41 1066.05 787.55 1091.74 754.69 957.36 721.83 762.9 673.52 649.41 611.31 686.33 549.18 842.28 474.72 1001.97 393.92 1065 322.1 1000.43 258.48 843.78 217.86 677.39 208.28 563.83 237.49 540.86 306.35 591.27 389.86 689.54 475.5 782.75 530 840.55 521.35 861.71 443.43 837.61 307.88 785.38 159.16 712.13 47.5 635.91 22.88 569.37 95.15 500.68 238.39 448.31 386.26 415.45 460.16 382.58 429.39 370.78 317.55 377.5 121.81 390.28 166.81 395.1 368.38 308.3 493.37 199.87 571.28 59.48 597.23 -81.85 575.22 -175.35 525.75 -191.36 470.91 -112.03 412.51 20.13 373.37 147.32 356.83 187.82 351.79 100.73 365.1 -77.64 389.94 -246.28 419.05 -295.92 451.88 -189.13 484.74 5.32 517.6 139.74 548.94 120.75 581.8 -25.14 618.93 -198.27 665.41 -276.31 727.39 -217.69 800.88 -58.12 894.13 114.8 1003.18 222.51 1108.67 232.36 1205.32 159.25 1270.39 54.65 1287.52 -47.06 1248.57 -98.39 1157.8 -92.96 1051.64 -39.9 958.73 45.03 922.81 137.75 971.05 238.56 1093.84 325.35 1250.21 393.24 1374.74 458.52 1412.16 507.23 1338.26 540.09Q1338.26 540.09 1338.26 540.09" opacity="0.80"></path><path d="M1304.26 343C1167.97 373.51 1025.19 385.16 931.86 380.94 918.86 379.45 982.24 369.15 1088.65 361.08 1204.58 372.13 1283.19 406.33 1303.96 476.93 1266.83 578.44 1181.42 708.57 1072.66 842.78 954.76 939.87 851.63 974.23 772.79 923.29 715.84 811.12 682.56 677 664.28 590.66 658.86 610.3 655.54 736.6 646.9 914.56 640.77 1045.64 623.74 1052.84 593.23 923.36 562.72 741.61 520.16 622.55 468.75 630.63 419.84 755.05 367.65 912.45 320.19 1013.67 285.59 1013.88 268.62 911.73 278.55 759.86 310.35 610.58 369.68 516.62 447.58 491.32 516.35 529.07 565.58 600.29 570.93 673.01 518.4 741.02 412.42 778.17 274.12 784.87 145.34 772.27 64.6 741.09 65.82 702.99 147.37 659.49 283.97 619.91 420.26 589.4 492.4 558.88 474.52 538.87 381.96 524.83 250.02 505.39 137.31 481.07 83.4 440.79 100.28 381.22 183.6 293.83 303.46 178.79 433.81 59.05 542.18 -55.98 613.17 -133.74 644.21 -148.44 639.83 -90.68 614.9 26.81 572.13 146.92 531.81 221.72 503.24 199.16 476.76 75.6 466.87 -99.16 472.6 -235.37 480.77 -255.26 500.83 -142.42 531.34 39.32 561.86 168.83 601.38 167.85 650.75 48.57 702.57 -117.61 767.97 -226.57 847.33 -223.86 928.78 -115.16 1019.35 46.31 1109.15 190.26 1181.11 272.98 1229.3 274.81 1238.25 217.72 1207.26 123.49 1135.07 37.16 1036.49 -17.3 948.4 -40.88 892.45 -24.83 897.93 16.99 974.21 77.94 1104.28 143.75 1248 202.78 1352.34 264.55 1376.4 312.48 1304.26 343Q1304.26 343 1304.26 343" opacity="0.89"></path><path d="M1270.26 190.74C1145.49 218.91 1011.15 240.25 912.88 258.64 878.75 281.86 912.74 311.46 994.7 356.26 1102.01 416.72 1195.2 501.18 1250.39 608.69 1261.64 719.21 1224.4 826.74 1152.68 904.67 1056.62 929.91 955.48 891.98 862.92 794.2 778.03 677.72 711.48 579.03 661.69 549.25 622.33 614.57 592.8 756.93 567.5 918.85 545.34 1021.97 521.4 1013.08 493.23 889.36 465.06 720.71 434.01 599.07 403.04 581.85 375.22 672.14 353.52 814.42 344.06 936.22 345.04 990.77 365.21 952.21 406.68 844.02 455.83 700.48 516.54 569.81 575.68 481.52 610.48 443.68 614.32 453.6 573.75 491.16 489.23 549.96 370.78 603.62 242.82 640.69 140.22 671.42 90.2 681.5 113.46 674.63 200.86 663.63 329.49 642.52 454.26 614.35 524.06 586.18 517.6 552.29 444.05 510.18 327.47 463.92 214 402.61 139.28 323.06 118.38 237.19 159.24 137.14 245.46 34.93 359.48 -46.03 474.69 -96.39 571.79 -95.47 645.17 -44.1 687.27 53.16 703.9 167.38 698.25 246.24 682.08 259.55 665.57 184.37 643.38 41.93 630.37 -116.36 630.18 -217.54 629.98 -211.22 643.54 -95.32 671.71 73.32 699.87 197.07 741.31 211.7 794.64 119.48 847.95 -31.57 912.19 -157.92 983.2 -202.61 1048.52 -152.19 1111.07 -28.25 1160.13 117.55 1186.92 244.66 1185.26 315.99 1148.79 327.68 1088.6 286.66 1006.79 219.57 922.1 152.46 865.21 88.36 849.61 50.28 891.15 38.63 986.52 42.64 1116.02 64.28 1243.48 94.19 1327.89 128.91 1340.06 162.57 1270.26 190.74Q1270.26 190.74 1270.26 190.74" opacity="0.26"></path><path d="M1236.26 203.08C1122.96 228.9 998.18 262.58 898.28 305.63 847.4 351.75 854.12 412.1 908.3 488.17 996.65 567.97 1089.05 659.1 1162.96 751.18 1210.74 824.72 1218.96 872.96 1191.81 878.46 1135.72 839.98 1061.12 757.81 980.78 650.65 895.3 560.27 817.68 512.36 751.95 536.52 690.63 634.46 641.01 779.51 601.36 919.09 563.88 994.9 532.7 972.5 506.88 855.36 457.17 647.33 499.33 940.14 562.57 900.91 603.11 797.55 640.64 672.19 662.89 556.07 656.2 462.22 617.38 406.61 542.7 385.04 441.91 392.71 326.35 415.98 219.08 441.21 145.97 473.23 124.56 494.41 165.48 500.58 255.42 506.29 374.96 496.49 488.26 470.67 555.14 444.85 558.52 404.23 503.22 349.83 404.51 294.97 297.23 226.82 211.25 150.06 161.24 80.08 162.35 14.29 208.87 -33.17 290.75 -51.39 390.62 -32.85 490.56 27.15 584.62 109.42 659.21 204.17 712.46 280.65 747.85 303.28 767.1 259.57 777.31 149.27 779.33 -60.3 799.45 -105.91 832.52 107.31 858.34 224.48 894.26 252.14 937.77 186.31 979.51 56.7 1024.99 -73.65 1068.46 -152.68 1103 -157.92 1126.27 -86.87 1130.67 30.38 1117.21 164.43 1079.69 277.22 1019.48 349.54 953.38 377.89 884.12 366.71 829.12 332.97 809.48 280.68 831.54 232.07 900.47 197.01 1005.37 165.69 1127.35 152.3 1236.02 154.88 1301.29 160.53 1303.14 177.26 1236.26 203.08Q1236.26 203.08 1236.26 203.08" opacity="0.71"></path><path d="M1202.67 370.21C1100.86 393.68 986.61 431.11 888.06 481.02 824.94 530.73 807.86 591.54 833.71 658.71 896.21 719.08 974.81 775.01 1051.1 814.98 1118.51 830.63 1160.06 815.54 1173.05 764.91 1161.48 693.05 1126.53 604.68 1076.91 522.35 1014.95 477.37 950.29 482.99 889.43 550.03 826.96 665.12 772.73 800.89 728.6 913.99 684.97 964.22 651.03 931.01 627.56 821.25 598.14 620.67 597.19 573.67 624.74 728.72 657.93 868.24 710.79 820.57 692.22 674.68 648.47 565.75 579.09 472.54 487.23 402.72 386.5 353.14 286.85 325.58 207.15 312.07 164.09 310.42 167.81 311.12 221.87 307.31 311.36 305.92 420.86 294.75 522.67 271.28 585.84 247.81 597.12 213.14 558.54 170.27 478.93 129.81 383.42 86.41 295.48 47.39 227.19 20.21 196.42 9.12 204.68 22.53 247.18 56.17 316.13 115.68 398.1 193.85 488.09 266.15 572.47 323.97 644.83 344.55 708.5 312.05 757.65 226.78 794.71 102.16 824.22 -27.04 847.29 -126.49 867.87 -159.38 886.26 -113.72 906.36 -0.17 929.83 141.25 953.3 251.01 979.04 288.97 1004.91 247.8 1028.6 143.76 1048.23 21.36 1059.39 -76.53 1063.02 -126.36 1052.52 -110.92 1025.03 -41.51 988.84 65.26 938.16 181.45 878.93 284.08 827.73 365.47 786.61 414.26 768.54 434.79 784.72 430.99 836.55 413.72 922.04 394.03 1027.19 367.53 1136.06 349.42 1224.72 343.97 1272.37 338.34 1265.84 346.73 1202.67 370.21Q1202.67 370.21 1202.67 370.21" opacity="0.55"></path><path d="M1168.23 560.9C1077.52 582.02 974.56 611.64 880.46 647.08 810.42 680.27 775.03 714.63 775.38 744.1 809.73 763.74 865.82 769.38 930.47 754.56 999.36 723.65 1056.37 670.8 1095.34 600.79 1120.75 502.37 1063.59 465.87 1005.48 584.41 960.55 701.17 917.72 818.18 880.55 902.92 842.53 930.2 812.11 888.99 790.99 787.37 769.87 659.94 759.04 547.19 757.22 481.04 754.55 476.79 758.95 529.43 767.27 617.24 770.63 720.56 772.11 806.72 766.28 857.63 747.56 869.71 714.15 839.75 662.59 779.5 595.93 696.68 513.88 607.59 422.99 524.2 336.35 444.93 261.31 380.81 211.48 331.79 195.64 290.93 219.01 260.48 280.9 236.25 366.85 214.75 465.52 194.4 556.23 173.27 615.6 152.15 633.64 131.25 610.53 112.91 550.63 97.31 471.07 89.33 389.1 93.57 313.37 105.99 261.22 135.31 238.12 182.03 242.17 232.86 273.47 291.62 324.04 346.76 389.95 379.32 461.54 384.23 531.29 350.15 601.53 277.24 663.45 172.14 715.4 53.33 763.87 -49.95 803.54 -114.62 835.67 -118.51 866.33 -60.52 891.98 47.94 913.1 175.37 934.23 276.98 949.83 322.48 959.01 303.36 966.73 226.76 965.49 121.77 953.64 20.5 938.3 -57.37 911.17 -88.77 873.49 -72.02 836.29 -13.68 795.03 72.5 756.8 168.04 733.91 265.74 727.65 348.91 745.59 412.38 790.68 459.76 861.77 488.92 952.98 505.88 1050.43 513.02 1142.02 517.09 1210.08 523.74 1241.36 528.13 1227.61 539.77 1168.26 560.89Q1168.23 560.9 1168.23 560.9" opacity="0.97"></path><path d="M1134.22 624.89C1054.59 643.67 963.48 660.12 876.16 672.62 803.67 683.03 755.41 685.69 734.61 677.44 741.92 663.26 771.46 634.97 815.05 592.52 870.57 547.25 925.36 494.57 972.66 442.9 1015.03 407.6 1043.5 391.5 1057.96 404.82 1063.65 451.47 1057.83 529.74 1043.86 631.04 1024.82 736.06 1002.13 828.04 978.93 884.8 954.42 892.51 931.99 846.07 913.21 753.32 894.44 640.07 880.19 535.15 869.3 462.63 857.08 435.91 845.61 456.63 832.11 513.87 813.53 597.13 788.44 682.89 753.8 754.13 710.4 805.95 654.97 826.49 587.99 817.71 516.08 784.23 439.03 732.19 363.96 671.44 300.81 602.41 254.43 536.19 233.36 477.78 240.4 420.34 277.97 372.86 343.22 335.69 423.28 299.67 510.59 272.23 590.22 253.45 644.99 234.67 667.75 225.44 657.74 226.06 616.53 227.81 555.17 241.13 485.45 266.03 412.63 291.9 351.44 327.19 308.52 367.28 282.97 399.1 279.9 424.17 296.09 433.04 328.11 417.21 371.91 374.41 421.38 303.03 477.04 212.24 531.52 109.65 581.17 12.62 631.35 -58.37 674.65 -89.79 709.87 -70.31 744.77 -5.04 771.96 96.07 790.74 209.32 814.26 327.19 815.15 261.69 792.94 129.78 775.84 42.25 752.28 -19.18 725.56 -46.27 705.03 -40.04 688.18 -1.67 680.76 58.23 689.17 134.51 714.51 214.15 759.6 288.35 822.06 359.75 900.09 418.96 986.68 465.68 1070.15 506.48 1142.21 537.97 1190.68 562.97 1207.95 585.89 1189.01 606.1 1134.25 624.88Q1134.22 624.89 1134.22 624.89" opacity="0.18"></path><path d="M1100.25 511.92C952.38 544.78 802.14 538.92 712.51 494.94 703.7 450.71 757.99 386.09 831.43 345.92 915.17 378.97 966.68 498.76 980.93 680.12 983.11 827.2 962.76 853.73 929.89 719.31 897.03 524.85 854.77 408.99 795.65 427.75 724.45 554.46 621.66 690.26 494.85 764.09 378.33 773.44 289.19 717.8 273.92 642.76 339.46 551.95 476.38 481.75 624.25 448.89 698.15 416.03 672.76 423.62 579.74 457.48 454.05 475.57 361.83 479.93 327.55 427.51 339.57 310.6 393.15 139.95 457.65 -10.83 533.1 -53.68 593.94 48.85 626.8 243.31 659.66 377.73 661.44 364.52 642.93 241.53 635.38 84.25 633.08 -0.68 664.13 9.33 741.48 92.57 868.56 208.48 1018.34 309.65 1135.44 410.59 1174.15 479.06 1100.25 511.92Q1100.25 511.92 1100.25 511.92" opacity="0.88"></path><path d="M1066.23 310.97C941.46 339.13 807.2 334.93 708.31 310.92 661.85 299.95 667.81 299.09 703.04 339.56 762.45 429.93 812.79 570.67 838.95 721.5 862.67 816.3 860.52 809.09 832.35 685.37 804.19 516.72 752.67 393.98 680.14 365.89 605.16 430.97 510.87 538.13 414.54 630.64 342.39 702.08 306.56 722.1 332.38 706.4 410.61 673.14 533.46 634.07 658.23 605.91 728.05 577.74 725.63 563.14 666.86 547.59 568.54 514.48 476.41 450.5 416.48 342.14 380.42 212.72 381.85 75.68 405.79 -10.04 441.05 -2.6 478.58 108.72 506.74 277.37 534.91 401.09 551.06 419.72 564.6 345.55 589.47 215.37 631.99 104.51 704.96 51.06 801.8 47.5 923.8 92.32 1042.77 152.11 1122.2 224.93 1136.06 282.79 1066.26 310.96Q1066.23 310.97 1066.23 310.97" opacity="0.90"></path><path d="M1032.23 179.99C930.29 203.46 816.31 220.47 719.79 240.59 651.7 272.86 619.63 328.48 615.25 416.62 634.78 522.4 659.67 644.09 675.27 745.99 694.42 792.1 694.93 761.13 671.46 651.37 647.99 509.94 602.76 391.43 542.93 332.15 486.65 339.01 425.13 393.71 374.83 461.98 348.46 540.17 355.63 593.89 406.51 616.74 485.82 631.49 590.29 624.34 692.23 600.87 755.64 577.4 770.04 539.83 742.11 484.4 678.06 420.87 605.65 330.52 545.52 221.57 490.4 122.54 460.74 42.94 454.7 18.87 455.3 60.94 469.85 169.94 493.32 311.37 516.79 421.13 546.95 461.61 587.03 432.7 633.74 348.01 700.03 251.22 785.91 176.2 876.8 118.83 974.12 99.84 1055.37 108.25 1100.52 128.8 1095.66 156.51 1032.26 179.98Q1032.23 179.99 1032.23 179.99" opacity="0.68"></path><path d="M998.26 222.06C918.63 240.84 827.8 274.15 743.42 322.53 670.54 375.42 617.8 448.42 585.12 535.87 564.97 657.91 553.47 732.07 531.16 617.36 512.38 504.1 483.66 399.47 451.16 326.81 423.28 291.92 400.51 293.65 392.79 317.07 400.86 360.11 433.68 400.52 492.8 425.44 563.41 451.31 646.63 456.59 726.26 437.81 781.02 419.04 805.58 377.97 801.91 319.56 771.46 262.1 728.66 192.39 686.59 124.73 639.42 76.7 605.1 55.06 588.39 76.19 573.24 135.08 574.68 232.1 593.46 345.36 612.23 438.1 646.57 489.65 694.27 495.87 743.52 460 807.15 402.02 878.93 343.53 945.61 280.69 1008.33 237 1052.53 216.66 1069.97 200.81 1053.02 203.29 998.26 222.06Q998.26 222.06 998.26 222.06" opacity="0.11"></path><path d="M964.23 404.12C839.46 432.29 705.4 526.52 614.27 638.96 549.96 710.73 512.93 707.09 484.77 583.37 456.6 414.71 442.63 289.96 470.02 245.13 524.23 255.63 635.46 273.18 760.23 245.01 830.05 216.84 835.52 148.3 808.58 100.88 754.68 108.79 726.83 210.71 755 379.37 783.16 503.09 862.01 529.56 952.83 494.71 1016.69 419.19 1034.05 375.95 964.23 404.12Q964.23 404.12 964.23 404.12" opacity="0.10"></path><path d="M930.26 582.91C759.23 620.47 593.99 690.93 556.44 549.36 518.88 330.88 623.23 211.67 794.26 174.11 869.92 136.56 855.94 194.88 893.5 413.36 931.05 554.93 1005.92 545.36 930.26 582.91Q930.26 582.91 930.26 582.91" opacity="0.90"></path></g></svg>